<svg width="18" height="24" viewBox="0 0 18 24" fill="none" xmlns="http://www.w3.org/2000/svg">
<path d="M1 9.55556H2.23077V1H11.4615C14.5385 1 17 3.44444 17 6.5C17 9.55556 14.5385 12 11.4615 12H4.69231V14.4444H12.0769V16.8889H4.69231V23H2.23077V16.8889H1V14.4444H2.23077V12H1V9.55556ZM11.4615 3.44444H4.69231V9.55556H11.4615C12.2776 9.55556 13.0602 9.23363 13.6373 8.6606C14.2143 8.08758 14.5385 7.31038 14.5385 6.5C14.5385 5.68962 14.2143 4.91242 13.6373 4.3394C13.0602 3.76637 12.2776 3.44444 11.4615 3.44444Z" fill="black" stroke="black"/>
</svg>
