<svg width="18" height="13" viewBox="0 0 18 13" fill="none" xmlns="http://www.w3.org/2000/svg">
<path fill-rule="evenodd" clip-rule="evenodd" d="M8.1002 6.9501L0.700195 1.4001L1.3002 0.600098L8.7002 6.1501C8.87797 6.28343 9.12242 6.28343 9.3002 6.1501L16.7002 0.600098L17.3002 1.4001L9.9002 6.9501C9.36686 7.3501 8.63353 7.3501 8.1002 6.9501Z" fill="white"/>
<path fill-rule="evenodd" clip-rule="evenodd" d="M16 1H2C1.44772 1 1 1.44772 1 2V11C1 11.5523 1.44772 12 2 12H16C16.5523 12 17 11.5523 17 11V2C17 1.44772 16.5523 1 16 1ZM2 0C0.895431 0 0 0.89543 0 2V11C0 12.1046 0.89543 13 2 13H16C17.1046 13 18 12.1046 18 11V2C18 0.895431 17.1046 0 16 0H2Z" fill="white"/>
</svg>
