<svg width="28" height="30" viewBox="0 0 28 30" fill="none" xmlns="http://www.w3.org/2000/svg">
<path fill-rule="evenodd" clip-rule="evenodd" d="M3.83163 2.24957H0V0.749573H3.83163C5.18354 0.749573 6.33495 1.73221 6.54744 3.06732L7.04761 6.20988H25.7121C26.8545 6.20988 27.6906 7.28665 27.4076 8.39341L25.8676 14.416C25.4432 16.0759 23.9478 17.237 22.2345 17.237H8.80269L9.10803 19.1554C9.20462 19.7623 9.72798 20.209 10.3425 20.209H24.5639V21.709H10.3425C8.99057 21.709 7.83917 20.7263 7.62667 19.3912L5.06609 3.3031C4.9695 2.69623 4.44613 2.24957 3.83163 2.24957ZM8.56395 15.737H22.2345C23.2625 15.737 24.1597 15.0403 24.4144 14.0444L25.9543 8.02182C25.9948 7.86371 25.8753 7.70988 25.7121 7.70988H7.28635L8.56395 15.737Z" fill="white"/>
<path fill-rule="evenodd" clip-rule="evenodd" d="M11.8186 27.7192C12.3572 27.7192 12.8874 27.25 12.8874 26.5538C12.8874 25.8576 12.3572 25.3885 11.8186 25.3885C11.2799 25.3885 10.7498 25.8576 10.7498 26.5538C10.7498 27.25 11.2799 27.7192 11.8186 27.7192ZM11.8186 29.2192C13.2373 29.2192 14.3874 28.0258 14.3874 26.5538C14.3874 25.0818 13.2373 23.8885 11.8186 23.8885C10.3999 23.8885 9.24976 25.0818 9.24976 26.5538C9.24976 28.0258 10.3999 29.2192 11.8186 29.2192Z" fill="white"/>
<path fill-rule="evenodd" clip-rule="evenodd" d="M23.1212 27.7192C23.6598 27.7192 24.19 27.25 24.19 26.5538C24.19 25.8576 23.6598 25.3885 23.1212 25.3885C22.5826 25.3885 22.0524 25.8576 22.0524 26.5538C22.0524 27.25 22.5826 27.7192 23.1212 27.7192ZM23.1212 29.2192C24.5399 29.2192 25.69 28.0258 25.69 26.5538C25.69 25.0818 24.5399 23.8885 23.1212 23.8885C21.7025 23.8885 20.5524 25.0818 20.5524 26.5538C20.5524 28.0258 21.7025 29.2192 23.1212 29.2192Z" fill="white"/>
</svg>
