<svg width="190" height="25" viewBox="0 0 190 25" fill="none" xmlns="http://www.w3.org/2000/svg">
<path d="M1.52161 0.342795V10.0029H1.96659C2.00097 9.44913 2.0866 8.88944 2.2294 8.33008C2.36628 7.76478 2.54314 7.22263 2.76595 6.70296C2.98282 6.18891 3.23406 5.7211 3.51937 5.2983C3.79936 4.88175 4.10748 4.54456 4.4334 4.28175C4.67309 4.08238 4.9812 3.89365 5.36369 3.71115C5.74618 3.52834 6.20305 3.37991 6.73398 3.26585C7.27084 3.14585 7.88177 3.08868 8.578 3.08305H15.8403L0.562256 24.1162L0.63069 24.3219H22.7261V13.2228H22.2808C22.2464 13.8512 22.1833 14.4902 22.092 15.1355C21.9952 15.7808 21.8639 16.409 21.6927 17.0196C21.5155 17.6305 21.2927 18.1958 21.0189 18.7211C20.7449 19.2408 20.4136 19.6917 20.0196 20.0742C19.523 20.5367 18.9977 20.8735 18.4496 21.0907C17.8959 21.3076 17.3478 21.4444 16.7937 21.5016C16.2459 21.5644 15.7206 21.587 15.2238 21.5813H7.6874L22.8973 0.548112L22.7261 0.342795H1.52161ZM29.6115 20.4854C29.6172 20.7648 29.6059 21.0504 29.5718 21.3473C29.5431 21.6441 29.4631 21.941 29.3434 22.2266C29.2234 22.5122 29.0234 22.7804 28.7553 23.0204C28.4981 23.2313 28.2131 23.3972 27.8872 23.5057C27.5678 23.62 27.2366 23.6997 26.8941 23.7453C26.5513 23.791 26.226 23.825 25.9119 23.8425L25.3297 23.8766V24.3219H49.3773V13.9078H48.932L48.8295 14.9702C48.7779 15.5352 48.6979 16.0949 48.5954 16.6655C48.4867 17.2308 48.3154 17.7789 48.0701 18.3098C47.8301 18.8467 47.4764 19.3376 47.0139 19.8001C46.8711 19.9486 46.6599 20.1257 46.3858 20.3251C46.1114 20.5251 45.7636 20.7195 45.3352 20.9076C44.9071 21.102 44.393 21.2617 43.7937 21.3876C43.194 21.5129 42.4978 21.5757 41.704 21.5813H33.8592V4.17925C33.8536 3.97925 33.8648 3.72833 33.8995 3.43146C33.928 3.1346 34.0077 2.82618 34.1277 2.5065C34.2536 2.18651 34.4473 1.90152 34.7158 1.64434C34.9614 1.42747 35.2467 1.26746 35.572 1.15933C35.9036 1.04496 36.2401 0.964981 36.5885 0.919044C36.931 0.873733 37.2566 0.839341 37.5591 0.822153L38.1416 0.788097V0.342795H25.3297V0.788097L25.9119 0.822153C26.2148 0.839341 26.5401 0.873733 26.8885 0.919044C27.2307 0.964981 27.5678 1.04496 27.8988 1.15933C28.2244 1.26746 28.51 1.42747 28.7553 1.64434C29.0234 1.90152 29.2234 2.18651 29.3434 2.5065C29.4631 2.82618 29.5431 3.1346 29.5718 3.43146C29.6059 3.72833 29.6172 3.97925 29.6115 4.17925V20.4854ZM62.0179 0L54.55 18.0189C54.299 18.6067 54.0706 19.1092 53.865 19.5204C53.6594 19.9314 53.4825 20.2742 53.3284 20.5479C53.1741 20.8163 53.0428 21.0335 52.9403 21.2045C52.8316 21.3876 52.6775 21.6101 52.4891 21.8613C52.3006 22.1123 52.061 22.3694 51.7697 22.6319C51.4841 22.8891 51.1419 23.1232 50.7363 23.3288C50.3366 23.5341 49.8741 23.6825 49.3432 23.7741L48.6923 23.8766V24.3219H60.9904V23.8766L60.1339 23.8081C59.7973 23.7853 59.4373 23.7281 59.0548 23.6369C58.6724 23.5456 58.3127 23.4028 57.9699 23.2144C57.6277 23.026 57.3421 22.7804 57.1196 22.4719C56.9365 22.2154 56.8112 21.9129 56.7371 21.5588C56.6684 21.2104 56.6452 20.8504 56.6799 20.4798C56.708 20.1145 56.788 19.7717 56.914 19.4576L58.2158 16.2718H66.9853L68.5268 20.0401C68.6181 20.251 68.6924 20.4798 68.7608 20.7307C68.8293 20.9876 68.8634 21.2335 68.8693 21.4788C68.8634 21.9869 68.7665 22.3922 68.5724 22.6891C68.384 22.9916 68.1384 23.2144 67.8418 23.3628C67.6871 23.4541 67.499 23.5282 67.2822 23.5853C67.065 23.6425 66.8028 23.6941 66.4828 23.7338C66.1631 23.7741 65.7691 23.8081 65.3069 23.8425L64.7928 23.8766V24.3219H78.2215V23.8766L77.6731 23.8425C77.2678 23.8194 76.8678 23.7509 76.4741 23.6369C76.0803 23.5281 75.7204 23.3853 75.3894 23.2144C75.0526 23.0432 74.7782 22.8488 74.5557 22.6438C74.356 22.4438 74.1617 22.181 73.9792 21.8613C73.7907 21.536 73.5851 21.1076 73.3511 20.571C73.1226 20.0401 72.837 19.3608 72.5004 18.5326L64.93 0H62.0179ZM66.129 13.8737H59.072L62.5663 5.44673H62.6347L66.129 13.8737ZM88.5669 3.08305H91.1019C91.3015 3.07743 91.5531 3.08868 91.8556 3.1118C92.1581 3.13461 92.4834 3.18024 92.8374 3.26023C93.1915 3.33429 93.5452 3.45398 93.8993 3.61429C94.259 3.77991 94.5902 4.00239 94.9043 4.28175C95.1899 4.54456 95.4467 4.89298 95.6808 5.33266C95.9089 5.77202 96.1149 6.25763 96.2858 6.78856C96.463 7.32511 96.6055 7.86791 96.7142 8.41571C96.8223 8.96382 96.8911 9.48319 96.9254 9.96881H97.3708V0.342795H75.5154V9.96881H75.9607C75.9947 9.48319 76.0688 8.96382 76.1776 8.41571C76.2804 7.86791 76.4229 7.32511 76.5997 6.78856C76.7713 6.25763 76.9766 5.77202 77.2109 5.33266C77.4394 4.89298 77.6963 4.54456 77.9816 4.28175C78.2956 4.00239 78.6269 3.77991 78.9862 3.61429C79.3406 3.45398 79.6946 3.33429 80.0487 3.26023C80.4024 3.18024 80.7281 3.13461 81.0306 3.1118C81.333 3.08868 81.5843 3.07743 81.7843 3.08305H84.3192V20.4854C84.3249 20.6851 84.3136 20.9363 84.2789 21.2335C84.2505 21.5304 84.1708 21.8385 84.0508 22.1582C83.9311 22.4719 83.7311 22.7632 83.4627 23.0204C83.2171 23.2313 82.9317 23.3972 82.6064 23.5057C82.2749 23.62 81.9383 23.6941 81.5955 23.7453C81.2474 23.791 80.9218 23.8194 80.6193 23.8425L80.0368 23.8766V24.3219H92.8487V23.8766L92.2665 23.8425C91.9637 23.8194 91.6384 23.791 91.2959 23.7453C90.9478 23.6941 90.6106 23.62 90.2797 23.5057C89.9541 23.3972 89.6691 23.2313 89.4231 23.0204C89.155 22.7632 88.9607 22.4719 88.835 22.1582C88.7154 21.8385 88.6353 21.5304 88.6066 21.2335C88.5725 20.9363 88.5613 20.6851 88.5669 20.4854V3.08305ZM132.21 0.342795H121.933L115.527 16.6146H115.424L109.018 0.342795H98.3301V0.788097L98.9126 0.822153C99.2151 0.839341 99.5404 0.873733 99.8888 0.919044C100.231 0.964981 100.568 1.04496 100.899 1.15933C101.225 1.26746 101.51 1.42747 101.756 1.64434C102.024 1.90152 102.224 2.18651 102.344 2.5065C102.463 2.82618 102.543 3.1346 102.572 3.43146C102.606 3.72833 102.618 3.97925 102.612 4.17925V19.8001C102.618 20.0629 102.601 20.3823 102.567 20.7592C102.532 21.136 102.452 21.5185 102.327 21.9013C102.207 22.2838 102.013 22.6091 101.756 22.8835C101.533 23.1004 101.248 23.2772 100.911 23.4144C100.574 23.5513 100.225 23.6541 99.8716 23.7225C99.512 23.791 99.1923 23.8309 98.9126 23.8425L98.3301 23.8766V24.3219H109.874V23.8766L109.292 23.8425C109.012 23.8309 108.693 23.791 108.333 23.7225C107.979 23.6541 107.631 23.5513 107.294 23.4144C106.957 23.2772 106.671 23.1004 106.449 22.8835C106.243 22.6719 106.083 22.4266 105.969 22.141C105.849 21.8557 105.764 21.5644 105.712 21.2616C105.661 20.9648 105.627 20.6851 105.61 20.4282C105.598 20.1654 105.592 19.9601 105.592 19.8001V3.66553H105.695L113.848 24.3219H115.424L123.577 3.66553H123.68V20.4854C123.685 20.6851 123.674 20.9363 123.64 21.2335C123.611 21.5304 123.537 21.8385 123.411 22.1582C123.291 22.4719 123.092 22.7632 122.823 23.0204C122.578 23.2313 122.292 23.3972 121.967 23.5057C121.636 23.62 121.299 23.6941 120.956 23.7453C120.608 23.791 120.283 23.8194 119.98 23.8425L119.398 23.8766V24.3219H132.21V23.8766L131.627 23.8425C131.325 23.8194 130.999 23.791 130.656 23.7453C130.308 23.6941 129.972 23.62 129.646 23.5057C129.315 23.3972 129.029 23.2313 128.784 23.0204C128.515 22.7632 128.322 22.4719 128.196 22.1582C128.076 21.8385 127.996 21.5304 127.967 21.2335C127.939 20.9363 127.922 20.6851 127.928 20.4854V4.17925C127.922 3.97925 127.939 3.72833 127.967 3.43146C127.996 3.1346 128.076 2.82618 128.196 2.5065C128.322 2.18651 128.515 1.90152 128.784 1.64434C129.029 1.42747 129.315 1.26746 129.646 1.15933C129.972 1.04496 130.308 0.964981 130.656 0.919044C130.999 0.873733 131.325 0.839341 131.627 0.822153L132.21 0.788097V0.342795ZM144.781 0L137.314 18.0189C137.063 18.6067 136.834 19.1092 136.629 19.5204C136.423 19.9314 136.246 20.2742 136.092 20.5479C135.938 20.8163 135.806 21.0335 135.704 21.2045C135.595 21.3876 135.441 21.6101 135.253 21.8613C135.064 22.1123 134.825 22.3694 134.533 22.6319C134.248 22.8891 133.905 23.1232 133.5 23.3288C133.1 23.5341 132.638 23.6825 132.107 23.7741L131.456 23.8766V24.3219H143.754V23.8766L142.897 23.8081C142.561 23.7853 142.201 23.7281 141.818 23.6369C141.436 23.5456 141.076 23.4028 140.733 23.2144C140.391 23.026 140.106 22.7804 139.883 22.4719C139.7 22.2154 139.575 21.9129 139.501 21.5588C139.432 21.2104 139.409 20.8504 139.443 20.4798C139.472 20.1145 139.552 19.7717 139.678 19.4576L140.979 16.2718H149.749L151.29 20.0401C151.382 20.251 151.456 20.4798 151.524 20.7307C151.593 20.9876 151.627 21.2335 151.633 21.4788C151.627 21.9869 151.53 22.3922 151.336 22.6891C151.148 22.9916 150.902 23.2144 150.605 23.3628C150.451 23.4541 150.263 23.5282 150.046 23.5853C149.829 23.6425 149.566 23.6941 149.246 23.7338C148.927 23.7741 148.533 23.8081 148.07 23.8425L147.556 23.8766V24.3219H160.985V23.8766L160.437 23.8425C160.031 23.8194 159.631 23.7509 159.238 23.6369C158.844 23.5281 158.484 23.3853 158.153 23.2144C157.816 23.0432 157.542 22.8488 157.319 22.6438C157.12 22.4438 156.926 22.181 156.743 21.8613C156.554 21.536 156.349 21.1076 156.115 20.571C155.886 20.0401 155.601 19.3608 155.264 18.5326L147.694 0H144.781ZM148.893 13.8737H141.836L145.33 5.44673H145.398L148.893 13.8737ZM159.752 0.342795V0.788097L160.403 0.92527C160.819 1.02214 161.248 1.20466 161.687 1.46746C162.127 1.72996 162.549 2.03243 162.954 2.38086C163.36 2.72929 163.72 3.07743 164.034 3.42554L171.947 12.2297L165.267 20.0058C165.153 20.1486 164.987 20.3195 164.782 20.5251C164.576 20.7307 164.348 20.9479 164.108 21.1704C163.863 21.3932 163.634 21.5988 163.412 21.787C163.195 21.9757 163.012 22.1241 162.869 22.2323C162.332 22.6263 161.75 22.9688 161.122 23.2488C160.5 23.5281 159.883 23.7397 159.272 23.8766V24.3219H172.735V23.8766L171.913 23.8081C171.268 23.751 170.771 23.6766 170.417 23.5913C170.069 23.4997 169.835 23.4369 169.72 23.3972C169.475 23.3056 169.246 23.1916 169.03 23.0375C168.813 22.8891 168.63 22.7004 168.493 22.4607C168.356 22.2266 168.287 21.9354 168.282 21.5813C168.287 21.3132 168.361 21.0335 168.499 20.7367C168.636 20.4398 168.79 20.1654 168.967 19.9145C169.144 19.6632 169.292 19.4632 169.412 19.3204L173.763 14.2506L178.456 19.4232C178.701 19.6861 178.93 19.9601 179.147 20.2398C179.363 20.5251 179.546 20.8107 179.683 21.1076C179.82 21.3988 179.889 21.6957 179.894 21.9926C179.889 22.3294 179.797 22.6091 179.615 22.8319C179.437 23.0488 179.198 23.2257 178.901 23.3628C178.587 23.5169 178.222 23.6313 177.817 23.7056C177.411 23.7797 177.006 23.825 176.606 23.8425L175.613 23.8766V24.3219H190V23.8766C189.623 23.8309 189.212 23.7338 188.773 23.5853C188.327 23.4369 187.859 23.2029 187.362 22.8835C186.74 22.4494 186.135 21.9298 185.558 21.3132C184.982 20.702 184.37 20.0282 183.731 19.2864L176.434 11.1331L181.059 5.78953C181.39 5.40704 181.739 5.00144 182.104 4.56739C182.475 4.13334 182.869 3.71114 183.291 3.29991C183.709 2.88898 184.165 2.51804 184.656 2.19211C184.959 1.99837 185.29 1.80963 185.661 1.63308C186.032 1.45621 186.42 1.30777 186.825 1.17621C187.225 1.04496 187.619 0.947789 188.013 0.890603L188.698 0.788097V0.342795H174.927V0.788097L175.783 0.856546C176.412 0.907795 176.926 0.999014 177.325 1.12464C177.725 1.25057 178.033 1.40464 178.25 1.57589C178.502 1.76432 178.684 1.96994 178.787 2.19837C178.89 2.43243 178.941 2.689 178.936 2.98024C178.93 3.32305 178.884 3.62551 178.787 3.89926C178.695 4.168 178.581 4.40208 178.444 4.6077C178.307 4.81332 178.176 4.99017 178.045 5.1386L174.619 9.14665L169.755 3.73395C169.572 3.52833 169.441 3.34586 169.372 3.18586C169.304 3.02618 169.269 2.87775 169.275 2.74056C169.269 2.47776 169.332 2.2212 169.475 1.96995C169.612 1.7184 169.863 1.4959 170.234 1.30185C170.411 1.22154 170.617 1.14746 170.856 1.08496C171.096 1.02215 171.342 0.970602 171.587 0.930915C171.833 0.896541 172.055 0.868108 172.255 0.856546L173.043 0.788097V0.342795H159.752Z" fill="#1F1C21"/>
</svg>
