<svg width="190" height="9" viewBox="0 0 190 9" fill="none" xmlns="http://www.w3.org/2000/svg">
<path d="M0.492175 1.61215C0.639046 1.51996 0.801537 1.43589 0.979346 1.35746C1.15715 1.27996 1.34496 1.21715 1.54246 1.16996C1.74151 1.12152 1.94307 1.09778 2.14651 1.09559C2.43025 1.09559 2.67838 1.14464 2.88962 1.24058C3.10274 1.33807 3.2668 1.47901 3.38586 1.66494C3.50335 1.85275 3.56398 2.08118 3.56616 2.35117C3.56398 2.55461 3.5171 2.74398 3.42116 2.92022C3.3271 3.09584 3.1943 3.24833 3.02431 3.38145C2.85619 3.51426 2.65868 3.61802 2.43181 3.69239C2.20744 3.76645 1.96276 3.80394 1.70058 3.80582H1.2431V4.58018H1.71215C1.9162 4.58018 2.11932 4.59392 2.32244 4.62486C2.52743 4.65423 2.7215 4.70487 2.90525 4.77519C3.08712 4.84612 3.25116 4.93986 3.39397 5.05673C3.53678 5.17423 3.65023 5.3189 3.7321 5.49077C3.81616 5.66296 3.8574 5.86858 3.85928 6.10514C3.85928 6.39607 3.78897 6.65452 3.65022 6.8792C3.50929 7.10607 3.30585 7.28199 3.03836 7.41104C2.76805 7.53823 2.44182 7.60449 2.05245 7.60699C1.83215 7.60449 1.61278 7.58104 1.39559 7.53604C1.17685 7.49104 0.971224 7.43229 0.779979 7.36042C0.585922 7.28792 0.416243 7.2095 0.269372 7.12544L0 7.92354C0.30843 8.10323 0.639055 8.23602 0.993109 8.31852C1.34654 8.40008 1.70464 8.44165 2.06463 8.43946C2.35587 8.43946 2.6393 8.41228 2.9168 8.35697C3.19648 8.30229 3.45616 8.21822 3.69928 8.10323C3.94333 7.98792 4.15646 7.83948 4.34239 7.65918C4.5277 7.47731 4.67269 7.26263 4.778 7.01045C4.88362 6.75827 4.93645 6.46856 4.93832 6.14045C4.93082 5.75858 4.84426 5.42861 4.67614 5.14737C4.50802 4.86581 4.28115 4.63893 3.99241 4.47081C3.70273 4.30269 3.37461 4.19893 3.00305 4.15737V4.13458C3.31179 4.06177 3.58741 3.93457 3.83146 3.75489C4.07646 3.57489 4.27209 3.35208 4.41427 3.08584C4.55708 2.82053 4.62958 2.52524 4.63364 2.19868C4.62958 1.78994 4.53176 1.44152 4.33645 1.15434C4.14083 0.867155 3.87085 0.645899 3.52304 0.493402C3.17461 0.341219 2.77212 0.264685 2.31056 0.263123C1.8787 0.264685 1.48933 0.321865 1.1434 0.428737C0.799663 0.538735 0.492171 0.680914 0.222803 0.861222L0.492175 1.61215ZM6.85046 0.403408V3.73551C6.85265 4.05394 6.84639 4.3827 6.83076 4.71894C6.81701 5.05518 6.78764 5.37986 6.74264 5.69423C6.69608 6.00922 6.62734 6.29297 6.53359 6.54702C6.43984 6.80077 6.31484 7.0045 6.15828 7.16075C6.06047 7.25668 5.93954 7.34418 5.79079 7.42481C5.64174 7.50324 5.48737 7.55575 5.32518 7.58325L5.45424 8.40415C5.60892 8.40259 5.75923 8.38478 5.91016 8.34791C6.05859 8.31229 6.19922 8.26541 6.33047 8.20854C6.46109 8.15198 6.57452 8.09323 6.67421 8.02886C6.89358 7.87636 7.07545 7.68291 7.2217 7.45011C7.36669 7.21542 7.482 6.95168 7.56762 6.65856C7.65418 6.36326 7.71856 6.04985 7.75949 5.71767C7.80262 5.3833 7.8298 5.04361 7.84168 4.69361C7.85543 4.34331 7.86136 3.99739 7.85918 3.65302V1.26026H10.4638V8.31041H11.496V0.403408H6.85046ZM17.3499 5.82359L18.1945 8.31041H19.2854L16.5874 0.403408H15.3674L12.6691 8.31041H13.725L14.5459 5.82359H17.3499ZM14.7571 5.02579L15.5315 2.73837C15.6134 2.49588 15.6859 2.25524 15.7487 2.01274C15.813 1.77212 15.8737 1.53557 15.9305 1.30683H15.9537C16.0105 1.5337 16.0733 1.7687 16.1377 2.00713C16.2024 2.24525 16.2783 2.4918 16.364 2.7496L17.1505 5.02579H14.7571ZM21.9479 8.31041H22.9801V1.27183H25.3972V0.403408H19.5436V1.27183H21.9479V8.31041ZM29.4671 0.263123C28.9374 0.264685 28.4487 0.362783 28.0049 0.558403C27.559 0.753711 27.174 1.03339 26.8459 1.39682C26.5172 1.76244 26.2631 2.1987 26.0828 2.70712C25.9009 3.21742 25.8094 3.78614 25.8072 4.41612C25.8094 5.0158 25.8953 5.5611 26.0675 6.0539C26.2397 6.54514 26.4818 6.96889 26.7968 7.32544C27.1118 7.68106 27.4871 7.95447 27.9209 8.1479C28.3549 8.33977 28.834 8.43759 29.3618 8.43946C29.7668 8.43946 30.1536 8.3807 30.5192 8.26539C30.8849 8.15196 31.2214 7.97979 31.5261 7.75323C31.8314 7.52636 32.0973 7.24699 32.3217 6.91075C32.547 6.57639 32.7233 6.18922 32.8457 5.74892C32.9689 5.30893 33.0317 4.81675 33.0335 4.27489C33.0317 3.68241 32.9476 3.14304 32.7814 2.6543C32.6154 2.16369 32.3764 1.74087 32.0639 1.38526C31.7529 1.02777 31.3777 0.751836 30.9398 0.558403C30.5036 0.364346 30.0114 0.264685 29.4671 0.263123ZM29.4321 1.09559C29.7724 1.09778 30.0774 1.15838 30.3477 1.27994C30.6192 1.399 30.8536 1.56495 31.0552 1.77431C31.2567 1.98525 31.4248 2.22807 31.5576 2.5015C31.6908 2.77524 31.7904 3.06865 31.8567 3.37739C31.9211 3.68832 31.9545 4.00333 31.9545 4.32207C31.9545 4.77362 31.8979 5.19799 31.7864 5.59298C31.6745 5.98797 31.5105 6.33547 31.2958 6.63671C31.0786 6.93795 30.8145 7.1745 30.4996 7.34668C30.1852 7.51637 29.8252 7.60293 29.4205 7.60699C29.0958 7.60449 28.8012 7.54825 28.5349 7.43637C28.269 7.32294 28.0343 7.16637 27.8293 6.96544C27.6237 6.76388 27.4515 6.52733 27.3127 6.25952C27.1721 5.98953 27.0662 5.6964 26.9943 5.37985C26.924 5.06329 26.8865 4.73425 26.8865 4.39238C26.8865 4.04645 26.9199 3.71021 26.9887 3.3871C27.0546 3.06461 27.1568 2.76367 27.2931 2.48618C27.4284 2.21025 27.5984 1.96774 27.8015 1.759C28.0049 1.5515 28.2437 1.38932 28.5155 1.27338C28.7871 1.15651 29.0918 1.09778 29.4321 1.09559ZM33.491 0.403408L36.1188 5.75297C36.1656 5.84516 36.195 5.92516 36.2028 5.99766C36.2103 6.06953 36.195 6.14795 36.1541 6.23419C36.0897 6.377 36.0113 6.52732 35.9175 6.68169C35.8235 6.83825 35.7141 6.98264 35.5869 7.11982C35.4597 7.25669 35.3151 7.36606 35.1529 7.452C34.9904 7.53606 34.8066 7.58106 34.6054 7.58325C34.5179 7.58325 34.4435 7.58104 34.3807 7.5751C34.3179 7.56948 34.2651 7.5595 34.2182 7.54825L34.1245 8.38072C34.1891 8.40415 34.2673 8.42198 34.3588 8.43354C34.4526 8.4451 34.566 8.45103 34.6991 8.45103C35.0491 8.45103 35.3722 8.36914 35.6653 8.20665C35.9582 8.04259 36.2322 7.80041 36.4822 7.4773C36.6232 7.29355 36.7603 7.08638 36.891 6.85201C37.0241 6.61701 37.1513 6.36888 37.2744 6.10514C37.3978 5.84108 37.5169 5.5711 37.6303 5.29736C37.7453 5.02174 37.855 4.75237 37.9609 4.48613L39.6265 0.403408H38.5468L37.3038 3.75895C37.21 4.03831 37.1238 4.29612 37.0453 4.53111C36.9675 4.76361 36.8928 4.98079 36.8225 5.17828H36.7875C36.6994 4.94985 36.6094 4.7205 36.5156 4.49019C36.4219 4.26113 36.3238 4.02865 36.2244 3.79428L34.6526 0.403408H33.491ZM45.7848 7.24293C45.646 7.30918 45.4876 7.36793 45.3079 7.417C45.1279 7.46574 44.9367 7.50325 44.7329 7.53012C44.5279 7.55793 44.3204 7.57104 44.1076 7.57104C43.468 7.56761 42.9227 7.43824 42.473 7.18012C42.0233 6.92232 41.679 6.55669 41.4405 6.0817C41.2024 5.60828 41.0824 5.04518 41.0808 4.39238C41.0824 3.87177 41.1568 3.41084 41.3018 3.00585C41.448 2.60336 41.6577 2.26088 41.9271 1.98339C42.1989 1.70371 42.5236 1.49278 42.9014 1.34778C43.2802 1.20341 43.7005 1.1312 44.1664 1.1312C44.4967 1.13308 44.7954 1.16401 45.0632 1.22526C45.3317 1.28557 45.5601 1.36401 45.7495 1.45932L46.0076 0.626212C45.9176 0.577463 45.787 0.526849 45.6167 0.472163C45.4467 0.419039 45.2379 0.372489 44.9914 0.33499C44.7426 0.295928 44.4555 0.276845 44.1305 0.274658C43.5152 0.276845 42.9561 0.376533 42.4511 0.574028C41.9468 0.771523 41.5127 1.05309 41.1471 1.4187C40.7815 1.78432 40.4999 2.22181 40.3024 2.72836C40.1031 3.23679 40.0037 3.80396 40.0012 4.42739C40.0052 5.07862 40.1031 5.6533 40.2965 6.1536C40.4902 6.65234 40.7618 7.07075 41.1143 7.40949C41.4643 7.74917 41.8749 8.00541 42.3474 8.17915C42.8189 8.35134 43.3349 8.43946 43.8964 8.43946C44.2186 8.43759 44.5142 8.41977 44.7842 8.38478C45.0536 8.3479 45.2926 8.30071 45.4957 8.24415C45.6988 8.18728 45.8614 8.12855 45.9845 8.06386L45.7848 7.24293ZM48.7756 8.31041H49.8081V1.27183H52.2253V0.403408H46.3713V1.27183H48.7756V8.31041ZM56.2951 0.263123C55.7655 0.264685 55.2767 0.362783 54.8327 0.558403C54.3871 0.753711 54.0021 1.03339 53.6737 1.39682C53.3449 1.76244 53.0912 2.1987 52.9109 2.70712C52.729 3.21742 52.6374 3.78614 52.6352 4.41612C52.6374 5.0158 52.723 5.5611 52.8952 6.0539C53.0674 6.54514 53.3099 6.96889 53.6249 7.32544C53.9399 7.68106 54.3152 7.95447 54.7486 8.1479C55.1827 8.33977 55.6617 8.43759 56.1898 8.43946C56.5945 8.43946 56.9814 8.3807 57.347 8.26539C57.7126 8.15196 58.0495 7.97979 58.3542 7.75323C58.6592 7.52636 58.9254 7.24699 59.1498 6.91075C59.3751 6.57639 59.551 6.18922 59.6738 5.74892C59.7969 5.30893 59.8597 4.81675 59.8613 4.27489C59.8597 3.68241 59.7757 3.14304 59.6091 2.6543C59.4435 2.16369 59.2045 1.74087 58.892 1.38526C58.581 1.02777 58.2054 0.751836 57.7679 0.558403C57.3317 0.364346 56.8392 0.264685 56.2951 0.263123ZM56.2601 1.09559C56.6004 1.09778 56.9054 1.15838 57.1754 1.27994C57.4473 1.399 57.6817 1.56495 57.8832 1.77431C58.0848 1.98525 58.2529 2.22807 58.3857 2.5015C58.5188 2.77524 58.6185 3.06865 58.6845 3.37739C58.7491 3.68832 58.7826 4.00333 58.7826 4.32207C58.7826 4.77362 58.726 5.19799 58.6145 5.59298C58.5026 5.98797 58.3385 6.33547 58.1239 6.63671C57.9067 6.93795 57.6426 7.1745 57.3276 7.34668C57.0132 7.51637 56.6533 7.60293 56.2486 7.60699C55.9239 7.60449 55.6289 7.54825 55.363 7.43637C55.097 7.32294 54.8621 7.16637 54.6571 6.96544C54.4518 6.76388 54.2796 6.52733 54.1408 6.25952C54.0002 5.98953 53.8943 5.6964 53.8224 5.37985C53.7521 5.06329 53.7146 4.73425 53.7146 4.39238C53.7146 4.04645 53.748 3.71021 53.8165 3.3871C53.8827 3.06461 53.9846 2.76367 54.1212 2.48618C54.2565 2.21025 54.4261 1.96774 54.6296 1.759C54.8327 1.5515 55.0718 1.38932 55.3436 1.27338C55.6152 1.15651 55.9198 1.09778 56.2601 1.09559ZM61.1869 8.28666C61.3572 8.31041 61.5759 8.33164 61.8419 8.35133C62.1081 8.36914 62.4191 8.37884 62.7706 8.38072C63.4162 8.38072 63.9637 8.32197 64.4134 8.20103C64.8646 8.07947 65.2246 7.89418 65.4924 7.642C65.6996 7.45419 65.8662 7.22918 65.9868 6.96544C66.1083 6.70107 66.1705 6.39826 66.173 6.05796C66.1705 5.76484 66.1199 5.50484 66.0243 5.27954C65.9265 5.05517 65.7993 4.85926 65.6393 4.69926C65.4787 4.53676 65.3046 4.40612 65.1131 4.30425C64.9234 4.20238 64.7318 4.13052 64.5424 4.0874V4.05209C64.818 3.9524 65.0543 3.81553 65.254 3.64335C65.453 3.47116 65.6074 3.27209 65.7152 3.04522C65.8227 2.81835 65.8774 2.57587 65.8793 2.31556C65.8774 2.00463 65.8171 1.73118 65.6996 1.49869C65.5805 1.26588 65.4181 1.07246 65.2109 0.919966C65.0524 0.786845 64.8706 0.677466 64.6656 0.593406C64.4599 0.509346 64.2234 0.446847 63.9596 0.405911C63.6937 0.364349 63.3909 0.344663 63.0522 0.344663C62.8156 0.344663 62.5831 0.352794 62.3544 0.366544C62.1253 0.382169 61.9122 0.401863 61.7131 0.428737C61.5116 0.454674 61.3375 0.485929 61.1869 0.520929V8.28666ZM62.2075 1.20151C62.2878 1.18183 62.3994 1.16654 62.5437 1.15247C62.6884 1.13872 62.8784 1.1312 63.1109 1.1312C63.4572 1.12902 63.76 1.17403 64.0162 1.26215C64.2746 1.34996 64.4756 1.4887 64.6184 1.68057C64.7612 1.86994 64.8337 2.11649 64.8352 2.42148C64.8352 2.67773 64.7668 2.90647 64.6321 3.10772C64.4974 3.30709 64.3034 3.46552 64.0496 3.58051C63.7975 3.69801 63.4921 3.75676 63.1347 3.75895H62.2075V1.20151ZM62.2075 4.52144H63.0522C63.3337 4.52144 63.5959 4.55082 63.8422 4.60957C64.0868 4.66832 64.3034 4.75988 64.4912 4.883C64.6787 5.00612 64.8256 5.16453 64.9315 5.35796C65.0368 5.54952 65.0915 5.78046 65.0934 6.04639C65.0915 6.33139 65.0346 6.57451 64.9252 6.77138C64.8159 6.96888 64.6656 7.12793 64.4756 7.24699C64.2837 7.36605 64.069 7.45198 63.8265 7.50479C63.5844 7.55792 63.3297 7.58513 63.0637 7.58325C62.8825 7.58325 62.72 7.57917 62.579 7.57355C62.4362 7.56542 62.3131 7.55385 62.2075 7.53604V4.52144ZM72.8591 7.24293C72.7204 7.30918 72.5619 7.36793 72.3826 7.417C72.2023 7.46574 72.011 7.50325 71.8073 7.53012C71.6023 7.55793 71.3951 7.57104 71.182 7.57104C70.5423 7.56761 69.997 7.43824 69.5473 7.18012C69.0976 6.92232 68.7533 6.55669 68.5152 6.0817C68.2767 5.60828 68.157 5.04518 68.1552 4.39238C68.157 3.87177 68.2311 3.41084 68.3764 3.00585C68.5227 2.60336 68.732 2.26088 69.0017 1.98339C69.2733 1.70371 69.5979 1.49278 69.9757 1.34778C70.3545 1.20341 70.7748 1.1312 71.2407 1.1312C71.5713 1.13308 71.8701 1.16401 72.1379 1.22526C72.406 1.28557 72.6347 1.36401 72.8241 1.45932L73.0819 0.626212C72.9922 0.577463 72.8616 0.526849 72.691 0.472163C72.5213 0.419039 72.3122 0.372489 72.0657 0.33499C71.8169 0.295928 71.5298 0.276845 71.2051 0.274658C70.5895 0.276845 70.0304 0.376533 69.5254 0.574028C69.0211 0.771523 68.587 1.05309 68.2214 1.4187C67.8558 1.78432 67.5742 2.22181 67.3767 2.72836C67.1777 3.23679 67.078 3.80396 67.0758 4.42739C67.0796 5.07862 67.1777 5.6533 67.3711 6.1536C67.5646 6.65234 67.8361 7.07075 68.1886 7.40949C68.5386 7.74917 68.9492 8.00541 69.422 8.17915C69.8936 8.35134 70.4092 8.43946 70.9707 8.43946C71.2932 8.43759 71.5885 8.41977 71.8585 8.38478C72.1279 8.3479 72.3669 8.30071 72.5701 8.24415C72.7735 8.18728 72.9357 8.12855 73.0588 8.06386L72.8591 7.24293ZM74.3488 0.403408V8.31041H75.3694V4.6855H75.6981C76.0303 4.6855 76.3159 4.72863 76.5543 4.81269C76.7909 4.89863 76.9943 5.01766 77.1606 5.17422C77.3265 5.32859 77.4674 5.51454 77.5827 5.72984C77.7002 5.94453 77.8021 6.18295 77.8918 6.44482C77.9662 6.6545 78.0405 6.86761 78.1146 7.08448C78.189 7.30354 78.2671 7.51636 78.349 7.72604C78.4315 7.93322 78.5211 8.12854 78.6189 8.31041H79.7102C79.5983 8.07604 79.4949 7.83729 79.4008 7.59698C79.3071 7.35418 79.2174 7.10824 79.1274 6.85387C79.0377 6.59981 78.9415 6.33952 78.8418 6.06953C78.744 5.80172 78.6346 5.55359 78.5115 5.32516C78.3905 5.0961 78.2452 4.89269 78.0755 4.71488C77.9074 4.53676 77.7058 4.38833 77.4693 4.27083C77.2327 4.15334 76.9512 4.07334 76.6246 4.02865L79.6161 0.403408H78.3961L75.6862 3.91113H75.3694V0.403408H74.3488ZM80.7067 0.403408V8.31041H81.7976L84.2729 4.36864C84.5469 3.93303 84.8091 3.49085 85.0629 3.04336C85.3175 2.59556 85.5441 2.15398 85.7394 1.71743L85.7744 1.72964C85.7475 2.05994 85.7279 2.38994 85.7141 2.72024C85.7004 3.05305 85.6929 3.40084 85.6869 3.76239C85.6829 4.12645 85.6807 4.51894 85.6807 4.9433V8.31041H86.6428V0.403408H85.6225L83.0651 4.47426C82.7776 4.94175 82.5117 5.39299 82.267 5.82704C82.0229 6.25953 81.8042 6.6817 81.6101 7.09044L81.5748 7.07887C81.5986 6.72888 81.6164 6.37483 81.6295 6.0189C81.6436 5.66297 81.6533 5.29734 81.6614 4.92048C81.667 4.54267 81.6689 4.14769 81.6689 3.73551V0.403408H80.7067ZM92.5086 3.75895H89.4468V1.26026H92.6964V0.403408H88.4143V8.31041H92.8723V7.45416H89.4468V4.60362H92.5086V3.75895ZM158.84 0.403408V8.31041H159.872V4.60362H163.697V8.31041H164.729V0.403408H163.697V3.71177H159.872V0.403408H158.84ZM169.691 0.263123C169.161 0.264685 168.672 0.362783 168.228 0.558403C167.783 0.753711 167.397 1.03339 167.069 1.39682C166.74 1.76244 166.486 2.1987 166.306 2.70712C166.124 3.21742 166.033 3.78614 166.031 4.41612C166.033 5.0158 166.119 5.5611 166.291 6.0539C166.463 6.54514 166.705 6.96889 167.02 7.32544C167.335 7.68106 167.71 7.95447 168.144 8.1479C168.578 8.33977 169.057 8.43759 169.585 8.43946C169.99 8.43946 170.377 8.3807 170.743 8.26539C171.108 8.15196 171.445 7.97979 171.749 7.75323C172.055 7.52636 172.321 7.24699 172.545 6.91075C172.77 6.57639 172.947 6.18922 173.069 5.74892C173.192 5.30893 173.255 4.81675 173.257 4.27489C173.255 3.68241 173.171 3.14304 173.005 2.6543C172.839 2.16369 172.6 1.74087 172.287 1.38526C171.976 1.02777 171.601 0.751836 171.163 0.558403C170.727 0.364346 170.235 0.264685 169.691 0.263123ZM169.655 1.09559C169.996 1.09778 170.301 1.15838 170.571 1.27994C170.843 1.399 171.077 1.56495 171.279 1.77431C171.48 1.98525 171.648 2.22807 171.781 2.5015C171.914 2.77524 172.014 3.06865 172.08 3.37739C172.144 3.68832 172.178 4.00333 172.178 4.32207C172.178 4.77362 172.121 5.19799 172.01 5.59298C171.898 5.98797 171.734 6.33547 171.519 6.63671C171.302 6.93795 171.038 7.1745 170.723 7.34668C170.409 7.51637 170.049 7.60293 169.644 7.60699C169.319 7.60449 169.024 7.54825 168.759 7.43637C168.492 7.32294 168.258 7.16637 168.053 6.96544C167.847 6.76388 167.675 6.52733 167.536 6.25952C167.395 5.98953 167.29 5.6964 167.218 5.37985C167.147 5.06329 167.11 4.73425 167.11 4.39238C167.11 4.04645 167.143 3.71021 167.212 3.3871C167.278 3.06461 167.38 2.76367 167.516 2.48618C167.652 2.21025 167.822 1.96774 168.025 1.759C168.228 1.5515 168.467 1.38932 168.739 1.27338C169.011 1.15651 169.315 1.09778 169.655 1.09559ZM173.949 0.403408L176.741 4.04052C176.434 4.07927 176.17 4.15332 175.945 4.26519C175.722 4.37675 175.529 4.51892 175.367 4.69517C175.206 4.87142 175.065 5.07643 174.944 5.30892C174.825 5.54204 174.715 5.80015 174.618 6.0817C174.534 6.32795 174.452 6.57637 174.372 6.82668C174.293 7.07667 174.209 7.32543 174.121 7.57355C174.033 7.82167 173.932 8.06791 173.82 8.31041H174.864C174.95 8.1326 175.028 7.93509 175.103 7.71978C175.175 7.50479 175.246 7.2895 175.312 7.07075C175.378 6.85201 175.443 6.6464 175.509 6.45703C175.601 6.18516 175.701 5.94296 175.806 5.72359C175.914 5.5064 176.041 5.32112 176.19 5.16675C176.338 5.01206 176.522 4.89268 176.741 4.81049C176.958 4.72862 177.224 4.6855 177.539 4.6855H177.903V8.31041H178.888V4.6855H179.24C179.555 4.6855 179.82 4.72862 180.039 4.81049C180.256 4.89268 180.44 5.01206 180.589 5.16675C180.738 5.32112 180.864 5.5064 180.972 5.72359C181.077 5.94296 181.178 6.18516 181.269 6.45703C181.332 6.6464 181.395 6.85201 181.461 7.07075C181.525 7.2895 181.595 7.50479 181.668 7.71978C181.742 7.93509 181.825 8.1326 181.914 8.31041H182.958C182.851 8.06791 182.753 7.82167 182.669 7.57355C182.585 7.32543 182.503 7.0748 182.427 6.82262C182.35 6.57044 182.269 6.32014 182.184 6.06953C182.087 5.78641 181.977 5.52829 181.856 5.2933C181.734 5.05924 181.592 4.85363 181.427 4.67582C181.263 4.5002 181.068 4.35739 180.841 4.2474C180.615 4.14021 180.346 4.06927 180.038 4.04052L182.841 0.403408H181.657L179.205 3.91113H178.888V0.403408H177.903V3.91113H177.585L175.134 0.403408H173.949ZM183.979 0.403408V8.31041H185.07L187.545 4.36864C187.819 3.93303 188.081 3.49085 188.335 3.04336C188.589 2.59556 188.816 2.15398 189.011 1.71743L189.046 1.72964C189.019 2.05994 189 2.38994 188.986 2.72024C188.972 3.05305 188.965 3.40084 188.959 3.76239C188.955 4.12645 188.952 4.51894 188.952 4.9433V8.31041H189.915V0.403408H188.894L186.337 4.47426C186.05 4.94175 185.783 5.39299 185.539 5.82704C185.295 6.25953 185.076 6.6817 184.882 7.09044L184.847 7.07887C184.87 6.72888 184.888 6.37483 184.902 6.0189C184.915 5.66297 184.925 5.29734 184.933 4.92048C184.939 4.54267 184.941 4.14769 184.941 3.73551V0.403408H183.979Z" fill="#1F1C21"/>
</svg>
